<?xml version="1.0" standalone="no"?><!DOCTYPE svg PUBLIC "-//W3C//DTD SVG 1.1//EN" "http://www.w3.org/Graphics/SVG/1.1/DTD/svg11.dtd"><svg t="1769451839809" class="icon" viewBox="0 0 1024 1024" version="1.1" xmlns="http://www.w3.org/2000/svg" p-id="9270" xmlns:xlink="http://www.w3.org/1999/xlink" width="256" height="256"><path d="M512 125.99999999C263.51895342 125.99999999 62.12484072 332.49269794 62.12484072 587.309487c0 203.75595791 128.88923291 376.65797783 307.67711925 437.65355039 22.49375801 4.23632461 30.74146963-10.00972266 30.74146962-22.23133066 0-10.94696191-0.41238545-39.96391026-0.63732392-78.46572569-125.14027325 27.89225947-151.57043877-61.85783408-151.57043877-61.85783407-20.43182988-53.23522763-49.93614229-67.40629453-49.93614317-67.40629542-40.86366065-28.64205175 3.11163662-28.0797082 3.11163663-28.07970732 45.13747412 3.26159472 68.86838935 47.5368082 68.86838935 47.5368082 40.1513581 70.48044141 105.30827666 50.16107988 130.95116104 38.31436758 4.08636563-29.80422949 15.74563096-50.12359102 28.56707226-61.67038624-99.90977519-11.62177471-204.91813565-51.17329951-204.91813476-227.93674745 0-50.34852862 17.507642-91.54959521 46.29965185-123.79064766-4.61122031-11.65926445-20.05693417-58.55874961 4.38628271-122.06612724 0 0 37.78951377-12.37156699 123.71566904 47.27438173 35.91503349-10.23466026 74.37936006-15.33324463 112.65623789-15.52069336 38.20189922 0.18744785 76.70371464 5.2860331 112.61874815 15.52069336 85.85117666-59.6834376 123.56571094-47.27438174 123.56571094-47.27438173 24.55568613 63.50737676 9.14746201 110.40686191 4.49875107 122.06612724 28.86698935 32.24105332 46.22467237 73.44211992 46.22467237 123.79064766 0 177.17583339-105.15831856 216.20250352-205.36800996 227.5993415 16.12052666 14.24604638 30.51653203 42.36324433 30.51653203 85.43879033 0 61.67038623-0.56234355 111.3815918-0.56234444 126.52738858 0 12.33407724 8.09775263 26.69259287 30.92891749 22.15635204 178.63792822-61.10804268 307.41469278-233.89759336 307.41469189-437.57857177C961.87515928 332.49269794 760.44355683 125.99999999 512 125.99999999" fill="#9852f9" p-id="9271"></path></svg>